<svg viewBox="0 0 200 300" xmlns="http://www.w3.org/2000/svg">
  <defs>
    <linearGradient id="dressGradient" x1="0%" y1="0%" x2="100%" y2="100%">
      <stop offset="0%" style="stop-color:#FF6B9D;stop-opacity:1" />
      <stop offset="100%" style="stop-color:#FFB6C1;stop-opacity:1" />
    </linearGradient>
  </defs>
  
  <!-- Background -->
  <rect width="200" height="300" fill="#f8f9fa" rx="10"/>
  
  <!-- Summer Dress -->
  <path d="M70,50 Q70,40 80,40 L120,40 Q130,40 130,50 L130,60 Q140,65 145,80 L155,120 Q160,140 155,160 L150,200 Q148,220 145,240 L140,270 Q138,285 130,290 L70,290 Q62,285 60,270 L55,240 Q52,220 50,200 L45,160 Q40,140 45,120 L55,80 Q60,65 70,60 Z" 
        fill="url(#dressGradient)" stroke="#FF1493" stroke-width="1"/>
  
  <!-- Dress details -->
  <circle cx="85" cy="80" r="3" fill="white" opacity="0.7"/>
  <circle cx="115" cy="80" r="3" fill="white" opacity="0.7"/>
  <path d="M75,120 Q100,130 125,120" stroke="white" stroke-width="2" fill="none" opacity="0.5"/>
  <path d="M80,160 Q100,165 120,160" stroke="white" stroke-width="1" fill="none" opacity="0.3"/>
  
  <!-- Straps -->
  <rect x="75" y="40" width="8" height="20" rx="4" fill="url(#dressGradient)"/>
  <rect x="117" y="40" width="8" height="20" rx="4" fill="url(#dressGradient)"/>
  
  <!-- Label -->
  <text x="100" y="25" font-family="Arial, sans-serif" font-size="14" font-weight="bold" text-anchor="middle" fill="#333">Summer Dress</text>
</svg>
